PathFileType	4	(X/Y/Z)	C:\Users\ebm\Documents\Erivelton\Erivelton\propulsion4.trc
DataRate	CameraRate	NumFrames	NumMarkers	Units	OrigDataRate	OrigDataStartFrame	OrigNumFrames
150.00	150.00	      10	28	mm	150.00	313	      1250
Frame#	Time	IJ			PX			C7			T8			RAC			RAS			RPS			RAI			RPI			RLE			RME			RRS			RUS			R3M			R5M			LAC			LAS			LPS			LAI			LPI			LLE			LME			LRS			LUS			L3M			L5M			RW			LW			V_mid_elbow_r			V_mid_elbow_l			V_mid_wrist_r			V_mid_wrist_l			V_mid_trunk_low			V_mid_trunk_upp			
		X1	Y1	Z1	X2	Y2	Z2	X3	Y3	Z3	X4	Y4	Z4	X5	Y5	Z5	X6	Y6	Z6	X7	Y7	Z7	X8	Y8	Z8	X9	Y9	Z9	X10	Y10	Z10	X11	Y11	Z11	X12	Y12	Z12	X13	Y13	Z13	X14	Y14	Z14	X15	Y15	Z15	X16	Y16	Z16	X17	Y17	Z17	X18	Y18	Z18	X19	Y19	Z19	X20	Y20	Z20	X21	Y21	Z21	X22	Y22	Z22	X23	Y23	Z23	X24	Y24	Z24	X25	Y25	Z25	X26	Y26	Z26	X27	Y27	Z27	X28	Y28	Z28	

313	2.080							-1410.60938	1116.36975	-270.77847	-1525.29163	948.49091	-275.73431	-1368.01501	1044.57495	-73.06686	-1361.95239	868.71875	-13.84441	-1398.54980	891.69458	19.51564	-1379.96436	795.67102	17.32187	-1412.53064	820.25336	47.68344																-1254.04980	479.63211	85.02496	-1366.44250	1031.14160	-470.04962	-1347.77759	862.85376	-546.11389	-1394.19531	865.79926	-557.58618	-1338.10828	787.38599	-573.79712	-1390.83289	788.20966	-589.72852	-1367.41785	721.18860	-607.78046							-1221.12561	506.08908	-595.34015	-1159.67993	437.62750	-592.55621	-1201.44446	444.41370	-606.96552							
314	2.087							-1403.07825	1116.29858	-270.92148	-1518.00305	948.39105	-275.65753	-1360.04883	1044.01843	-72.94398	-1351.46948	867.99799	-14.67477	-1388.11731	890.05975	19.30398	-1367.96436	794.26581	15.99063	-1400.64648	818.06128	46.82609																-1242.84839	476.12677	85.67181	-1357.85547	1029.66931	-470.36411	-1337.54614	861.08325	-544.71808	-1384.06360	863.03436	-556.15839	-1326.60364	785.38226	-571.87982	-1379.39441	785.24902	-587.73132	-1354.89001	718.48035	-605.24072							-1210.08215	502.25839	-594.90240	-1149.96179	432.62167	-592.62134	-1191.52661	440.35590	-606.74567							
315	2.093							-1394.95154	1115.57104	-271.17258	-1510.76904	948.30414	-275.53180	-1352.19543	1043.51013	-72.79337	-1340.99695	867.18231	-15.71424	-1377.73401	888.43634	18.98881	-1355.98425	792.92511	14.55594	-1388.65015	816.03058	45.98579	-1419.39343	737.83167	73.80924													-1231.36609	472.36951	86.08452	-1349.23425	1028.18628	-470.25305	-1327.28210	859.19305	-543.13782	-1373.84277	860.34485	-554.52393	-1315.12988	783.59680	-569.88153	-1367.97046	782.49078	-585.59009	-1342.28442	716.02246	-602.61993							-1199.10864	498.48666	-594.48651	-1140.27576	427.71609	-592.44403	-1181.69446	436.31329	-606.50299							
316	2.100							-1387.38245	1115.59583	-271.43509	-1503.59692	948.25079	-275.47681	-1344.27893	1042.97742	-72.70277	-1330.46838	866.36517	-16.69638	-1366.98523	886.86780	18.38890	-1343.92017	791.74988	13.31247	-1376.65308	814.05505	45.00674	-1406.15076	735.22717	72.80995													-1219.99146	468.57669	86.58445	-1340.48926	1026.72278	-470.16232	-1316.79773	857.49976	-541.70923	-1363.41809	857.76007	-552.93237	-1303.60583	781.76526	-567.67279	-1356.43494	779.79315	-583.43884	-1329.62317	713.75269	-599.99554							-1188.28882	494.79568	-593.92212	-1130.81201	423.10342	-592.23309	-1171.94092	432.45923	-606.40796							
317	2.107							-1379.85864	1115.62976	-271.65057	-1496.32800	948.13434	-275.42239	-1336.50012	1042.54028	-72.56705	-1319.85132	865.49481	-17.88911	-1355.99048	885.40161	17.74621	-1331.66162	790.58392	11.55266	-1364.39905	812.03674	43.92975	-1392.81531	732.68585	71.60155													-1208.92334	464.86551	87.40756	-1331.71472	1025.28699	-470.12064	-1306.22400	855.68793	-539.86188	-1352.87122	855.36804	-551.36566	-1292.00854	780.13666	-565.62982	-1344.73840	777.24561	-581.39856	-1316.93945	711.54706	-597.19885							-1177.56079	491.12524	-593.34033	-1121.38232	418.63080	-592.08478	-1162.33276	428.71292	-606.20886							
318	2.113							-1372.43164	1115.67200	-271.83768	-1489.07825	947.97137	-275.37463	-1328.82495	1042.08667	-72.41562	-1309.29919	864.89893	-19.03924	-1344.66016	883.90057	16.72421	-1319.40002	789.58551	9.99937	-1352.03174	810.23358	42.81452	-1379.28564	730.20728	70.36929													-1197.77234	461.00726	87.94376	-1322.87219	1023.94238	-469.95810	-1295.66077	854.17578	-538.14587	-1342.08081	853.11316	-549.67645	-1280.21484	778.49048	-563.18433	-1332.87317	774.98248	-579.21844	-1304.28845	709.57825	-594.30737							-1166.99084	487.69510	-592.82617	-1111.99561	414.42792	-592.05511	-1152.76636	425.08304	-606.07153							
319	2.120							-1365.02673	1115.69080	-271.96393	-1481.90771	947.86847	-275.38571	-1321.14331	1041.54028	-72.26304	-1298.87512	864.47449	-20.13024	-1333.70520	882.77570	15.78476	-1307.03723	788.52509	8.29716	-1339.72058	808.53217	41.72459	-1365.58716	727.88037	69.02116													-1186.57043	457.16492	88.51503	-1313.96729	1022.68280	-469.78137	-1284.93066	852.77313	-536.36328	-1331.26721	851.09698	-548.14587	-1268.48975	777.18274	-560.82471	-1320.86755	772.91345	-577.25159	-1291.57727	707.78986	-591.25555							-1156.51294	484.37537	-592.30743	-1102.60779	410.64764	-592.01208	-1143.20410	421.41632	-605.81329							
320	2.127							-1357.67444	1115.71753	-272.09589	-1474.76416	947.78418	-275.41327	-1313.47339	1041.07898	-72.08588	-1287.90161	863.84906	-21.66297	-1322.46729	881.39026	14.69628	-1294.69617	787.81818	6.49193	-1327.27368	806.90027	40.37304	-1351.80786	725.71777	67.54848													-1175.54700	453.28271	88.99760	-1305.13708	1021.58234	-469.55630	-1274.19592	851.47473	-534.27094	-1320.28931	849.20776	-546.71722	-1256.45447	775.85846	-558.01489	-1308.62793	771.04187	-575.29968	-1278.95117	706.15558	-588.22510							-1146.16479	481.29129	-591.83698	-1093.24622	407.27142	-591.67438	-1133.76135	418.07324	-605.75092							
321	2.133							-1350.34644	1115.73059	-272.13889	-1467.57935	947.59985	-275.43411	-1305.84741	1040.62854	-71.88268	-1277.15515	863.52527	-23.11765	-1311.35486	880.33466	13.46792	-1282.30676	787.16400	4.77693	-1314.71301	805.42395	39.08772	-1337.94775	723.66809	66.00348													-1164.75366	449.28662	89.75869	-1296.31531	1020.59296	-469.24808	-1263.45667	850.40967	-532.29974	-1309.22327	847.42627	-545.31097	-1244.42883	774.87164	-555.29407	-1296.19702	769.28638	-573.39166	-1266.26868	704.70325	-585.15826	-1312.33154	675.08514	-524.68231				-1136.00525	478.42444	-591.43964	-1083.88147	404.14450	-591.42401	-1124.40808	415.12213	-605.75439							
322	2.140							-1343.10474	1115.79089	-272.10056	-1460.44128	947.46509	-275.47281	-1298.21289	1040.28040	-71.65649	-1266.49268	863.35754	-24.48581	-1300.35413	879.11420	12.42335	-1269.68457	786.67963	2.83340	-1302.18555	804.21936	37.67395	-1323.91968	721.75537	64.15495							-1163.65979	524.37427	72.79623				-1153.78564	445.06821	90.33143	-1287.70483	1019.73090	-468.93536	-1252.65649	849.36835	-530.15991	-1298.04602	845.82166	-544.00903	-1232.26807	773.86804	-552.29962	-1283.66833	767.68268	-571.38159	-1253.84485	703.34174	-581.99323	-1300.17847	673.85150	-521.63739				-1126.00940	475.87976	-590.96338	-1074.61047	401.55389	-591.09326	-1115.05798	412.75137	-605.82410							
